# xmcd CD database file
#
# Track frame offsets:
#	150
#	22725
#	48525
#
# Disc length: 877 seconds
#
# Revision: 0
# Processed by: cddbd v1.5.1PL0 Copyright (c) Steve Scherf et al.
# Submitted via: CDex 1.51
#
DISCID=19036b03
DTITLE=LINDBERG - It's Too Late (Single)
DYEAR=2002
DGENRE=Pop
TTITLE0=It's Too Late
TTITLE1=雨音
TTITLE2=東京計画
EXTD=YEAR: 2002
EXTT0=
EXTT1=
EXTT2=
PLAYORDER=
